<?xml version="1.0" standalone="no"?>
<!DOCTYPE svg PUBLIC "-//W3C//DTD SVG 20010904//EN"
 "http://www.w3.org/TR/2001/REC-SVG-20010904/DTD/svg10.dtd">
<svg version="1.0" xmlns="http://www.w3.org/2000/svg"
 width="2400.000000pt" height="2400.000000pt" viewBox="0 0 2400.000000 2400.000000"
 preserveAspectRatio="xMidYMid meet">
<metadata>
Created by potrace 1.11, written by Peter Selinger 2001-2013
</metadata>
<g transform="translate(0.000000,2400.000000) scale(0.100000,-0.100000)"
fill="#000000" stroke="none">
<path d="M11930 22497 c-18 -39 -62 -133 -98 -207 -35 -74 -77 -162 -92 -195
-15 -33 -58 -123 -95 -200 -37 -77 -80 -167 -95 -200 -15 -33 -59 -125 -98
-205 -38 -80 -83 -174 -100 -210 -54 -116 -118 -252 -187 -395 -37 -77 -80
-167 -95 -200 -15 -33 -54 -114 -86 -180 -31 -66 -58 -122 -59 -125 0 -3 -22
-50 -49 -105 -27 -55 -66 -136 -86 -180 -56 -120 -131 -278 -186 -390 -26 -55
-49 -102 -49 -105 -1 -3 -19 -43 -42 -90 -22 -47 -65 -137 -95 -200 -31 -63
-79 -164 -108 -225 -92 -192 -137 -288 -173 -365 -19 -41 -65 -138 -102 -215
-37 -77 -80 -167 -95 -200 -37 -79 -168 -355 -282 -595 -76 -158 -143 -300
-188 -395 -21 -44 -60 -127 -88 -185 -27 -58 -70 -148 -95 -200 -24 -52 -70
-149 -102 -215 -31 -66 -70 -147 -85 -180 -15 -33 -58 -123 -95 -200 -37 -77
-80 -167 -95 -200 -15 -33 -58 -123 -95 -200 -37 -77 -71 -150 -75 -161 -8
-20 -24 -26 -120 -39 -42 -6 -114 -18 -195 -31 -49 -8 -103 -17 -120 -20 -16
-2 -41 -6 -55 -9 -14 -2 -41 -7 -60 -9 -19 -3 -44 -8 -56 -10 -12 -2 -45 -7
-75 -11 -30 -4 -56 -8 -59 -10 -3 -1 -32 -6 -65 -10 -32 -3 -62 -8 -65 -10 -3
-2 -26 -6 -50 -9 -25 -3 -57 -8 -73 -11 -46 -8 -140 -24 -182 -30 -22 -3 -47
-7 -55 -10 -8 -2 -37 -6 -65 -10 -27 -3 -72 -10 -100 -15 -27 -5 -66 -11 -85
-14 -34 -5 -198 -31 -250 -40 -14 -3 -43 -7 -65 -11 -22 -3 -65 -10 -95 -15
-30 -5 -73 -12 -95 -15 -22 -3 -107 -17 -190 -31 -82 -13 -166 -27 -185 -30
-31 -5 -171 -26 -255 -40 -16 -2 -41 -6 -55 -9 -28 -5 -65 -11 -125 -20 -23
-3 -52 -8 -65 -10 -14 -3 -45 -8 -70 -11 -25 -3 -47 -8 -50 -9 -3 -2 -33 -7
-65 -10 -33 -4 -62 -9 -65 -10 -3 -2 -26 -6 -50 -10 -25 -3 -110 -17 -190 -30
-80 -13 -190 -30 -245 -39 -139 -22 -427 -69 -505 -82 -50 -9 -63 -11 -184
-29 -59 -9 -118 -19 -130 -21 -11 -2 -43 -7 -71 -10 -27 -4 -53 -8 -56 -10 -3
-1 -28 -6 -55 -9 -27 -3 -58 -8 -70 -10 -12 -3 -39 -7 -60 -10 -21 -4 -50 -8
-64 -11 -14 -2 -41 -7 -60 -10 -19 -3 -44 -7 -55 -9 -35 -5 -87 -14 -190 -30
-55 -9 -125 -20 -155 -25 -30 -6 -113 -19 -185 -30 -71 -12 -141 -23 -155 -25
-98 -16 -168 -27 -185 -29 -17 -3 -77 -13 -125 -21 -8 -1 -40 -6 -70 -11 -30
-4 -57 -8 -60 -9 -23 -5 -351 -58 -430 -69 -25 -4 -83 -13 -130 -21 -47 -8
-105 -17 -130 -20 -24 -4 -47 -8 -50 -10 -3 -2 -29 -6 -59 -10 -30 -4 -63 -9
-75 -11 -40 -8 -129 -22 -181 -29 -22 -3 -116 -18 -208 -34 l-168 -27 148
-141 c81 -78 166 -158 188 -179 50 -46 322 -303 386 -364 26 -25 106 -101 180
-170 73 -69 149 -141 169 -160 55 -52 315 -299 363 -344 23 -22 109 -103 191
-180 81 -78 160 -152 175 -166 15 -14 94 -89 176 -167 83 -78 173 -163 200
-188 42 -40 232 -219 375 -355 20 -19 101 -96 180 -170 79 -74 160 -151 180
-170 40 -38 287 -272 360 -340 25 -23 110 -104 190 -180 80 -76 161 -152 180
-170 19 -18 102 -96 184 -174 82 -77 165 -157 186 -176 20 -19 106 -100 190
-180 84 -80 170 -161 190 -180 21 -19 109 -102 196 -185 87 -82 192 -181 233
-220 40 -38 97 -92 126 -120 29 -27 113 -106 186 -175 73 -69 154 -145 180
-170 176 -168 170 -162 165 -189 -3 -14 -8 -46 -12 -71 -3 -25 -8 -52 -9 -60
-2 -8 -6 -35 -9 -60 -3 -25 -8 -56 -10 -70 -3 -14 -7 -43 -11 -65 -3 -22 -9
-65 -15 -95 -5 -30 -11 -73 -14 -95 -3 -22 -7 -49 -9 -60 -3 -11 -8 -42 -11
-68 -4 -27 -9 -56 -10 -65 -2 -10 -7 -39 -10 -65 -4 -27 -9 -57 -11 -67 -2
-11 -11 -69 -20 -130 -9 -61 -18 -119 -20 -130 -2 -10 -7 -40 -11 -67 -3 -26
-8 -57 -10 -68 -2 -11 -7 -40 -10 -65 -3 -25 -7 -52 -9 -60 -4 -13 -70 -438
-80 -510 -2 -14 -6 -41 -10 -60 -3 -19 -7 -46 -9 -60 -2 -14 -6 -41 -9 -60 -4
-19 -9 -48 -11 -65 -2 -16 -9 -59 -15 -95 -5 -36 -13 -83 -16 -105 -3 -23 -8
-52 -10 -65 -3 -14 -8 -45 -11 -70 -3 -25 -7 -52 -9 -60 -2 -8 -7 -35 -10 -60
-3 -25 -8 -56 -10 -70 -2 -14 -9 -56 -15 -95 -18 -117 -20 -129 -25 -155 -3
-14 -7 -41 -9 -60 -7 -48 -15 -99 -32 -202 -8 -48 -17 -106 -20 -130 -3 -24
-14 -95 -24 -158 -11 -63 -22 -137 -25 -165 -4 -27 -8 -57 -10 -65 -2 -8 -11
-60 -19 -115 -25 -165 -27 -178 -36 -235 -5 -30 -12 -73 -15 -95 -4 -22 -15
-94 -25 -160 -18 -115 -28 -177 -34 -220 -2 -11 -7 -40 -10 -65 -4 -25 -15
-97 -26 -160 -10 -63 -21 -135 -25 -160 -8 -58 -13 -92 -25 -160 -5 -30 -14
-84 -19 -120 -5 -36 -19 -126 -31 -200 -11 -74 -23 -151 -26 -170 -11 -73 -14
-96 -19 -120 -2 -14 -7 -43 -10 -65 -3 -22 -10 -65 -15 -95 -5 -30 -12 -73
-15 -95 -4 -22 -8 -49 -10 -60 -1 -11 -6 -45 -10 -75 -3 -30 -8 -57 -10 -60
-2 -3 -6 -30 -10 -60 -3 -30 -8 -62 -10 -70 -2 -8 -7 -35 -10 -60 -3 -25 -8
-56 -10 -70 -2 -14 -18 -113 -35 -220 -17 -107 -32 -206 -35 -220 -2 -14 -16
-101 -30 -195 -14 -93 -28 -181 -30 -194 -2 -13 -7 -45 -11 -70 -4 -25 -8 -53
-10 -63 -1 -9 -6 -37 -9 -63 l-7 -46 38 22 c58 33 217 119 319 174 50 26 95
51 100 55 6 4 51 29 100 56 50 26 108 58 130 71 22 12 47 26 55 30 8 4 105 56
215 116 110 60 227 124 260 142 33 18 132 72 220 120 189 104 248 136 335 183
82 44 162 88 220 120 25 14 74 41 110 60 36 19 88 47 115 62 28 15 77 42 110
60 33 18 110 59 170 93 61 33 133 72 160 87 28 15 100 54 160 87 61 33 142 78
180 98 39 21 88 49 110 62 22 12 47 26 55 30 8 3 53 27 100 53 95 52 193 106
290 158 36 19 91 50 123 68 32 19 60 34 62 34 2 0 62 32 132 71 70 40 142 79
158 87 25 13 255 138 1055 574 219 119 416 227 475 260 39 22 82 45 98 51 15
6 27 15 27 19 0 4 5 8 12 8 6 0 55 24 107 54 53 29 128 70 166 91 88 47 153
83 285 155 185 102 274 150 327 177 l51 26 149 -75 c81 -42 333 -169 558 -283
226 -114 563 -285 750 -380 187 -95 529 -268 760 -385 470 -238 1016 -514
1540 -780 193 -98 548 -278 790 -400 242 -123 589 -298 770 -390 182 -92 555
-281 830 -420 275 -139 515 -261 534 -271 32 -17 57 -17 47 0 -3 4 -8 23 -11
42 -3 19 -12 66 -20 104 -8 39 -19 97 -25 130 -5 33 -12 71 -15 85 -3 14 -9
50 -15 80 -6 30 -12 66 -15 80 -3 14 -16 86 -30 160 -14 74 -27 146 -30 160
-3 14 -9 50 -15 80 -6 30 -12 66 -15 80 -7 38 -26 142 -31 170 -2 14 -8 45
-14 70 -10 49 -38 197 -46 245 -9 58 -55 300 -64 345 -6 25 -12 61 -15 80 -4
19 -10 53 -15 75 -5 22 -12 60 -15 85 -4 24 -8 47 -10 50 -2 3 -6 26 -10 50
-4 25 -15 89 -26 143 -20 102 -26 133 -34 182 -3 17 -17 90 -31 162 -14 73
-27 145 -29 160 -2 16 -6 39 -9 53 -3 14 -8 37 -11 53 -9 47 -15 81 -20 107
-3 14 -8 37 -10 53 -3 15 -7 39 -10 55 -2 15 -7 38 -10 52 -2 14 -7 36 -9 50
-16 84 -67 359 -71 380 -3 14 -12 62 -20 107 -8 45 -17 92 -20 105 -5 25 -11
57 -25 136 -5 30 -11 61 -14 70 -3 10 -7 35 -11 56 -3 21 -7 48 -10 60 -5 24
-9 45 -31 166 -8 47 -22 119 -30 160 -9 41 -19 98 -24 125 -10 54 -47 257 -54
290 -5 27 -37 194 -42 225 -3 14 -11 61 -20 105 -8 44 -17 96 -20 115 -3 19
-7 43 -10 52 -3 10 -7 30 -10 45 -3 16 -16 89 -30 163 -14 74 -38 207 -55 295
-16 87 -31 166 -34 175 -2 8 -7 35 -10 60 -3 25 -8 52 -11 61 -2 9 -11 52 -19
95 -8 43 -23 129 -35 189 -29 149 -40 214 -46 255 -2 19 -7 42 -9 50 -2 8 -7
29 -10 45 -2 17 -7 41 -10 55 -3 14 -8 41 -11 60 -4 19 -9 44 -11 55 -2 11
-13 67 -23 125 -11 58 -26 143 -35 189 -9 46 -15 85 -13 86 2 2 608 612 1348
1355 740 744 1621 1629 1957 1968 337 339 928 932 1313 1318 385 387 697 705
693 707 -5 3 -39 8 -77 12 -38 4 -79 9 -90 11 -12 1 -39 5 -61 8 -75 9 -370
47 -395 51 -14 2 -45 6 -70 9 -25 3 -81 10 -125 16 -44 6 -114 15 -155 20 -41
6 -91 12 -110 15 -19 3 -53 7 -75 10 -21 2 -75 9 -120 15 -44 6 -98 13 -120
16 -22 2 -56 6 -75 9 -19 3 -55 7 -80 10 -25 4 -56 8 -70 10 -14 2 -50 7 -80
10 -30 3 -66 8 -80 10 -14 2 -81 11 -150 20 -69 9 -136 18 -150 20 -14 2 -49
7 -79 10 -30 4 -61 8 -70 10 -9 1 -43 6 -76 9 -33 4 -71 9 -85 11 -14 2 -63 9
-110 15 -47 5 -103 12 -125 15 -22 3 -58 8 -80 10 -34 5 -95 12 -310 41 -22 3
-51 7 -65 9 -14 2 -45 6 -70 9 -107 12 -147 17 -170 21 -14 3 -81 12 -150 20
-69 8 -140 17 -158 20 -18 3 -52 7 -75 10 -23 3 -55 7 -72 9 -16 3 -52 7 -80
11 -27 3 -61 8 -75 10 -14 3 -52 7 -85 11 -33 3 -68 8 -79 10 -10 2 -44 6 -75
9 -31 3 -67 8 -81 10 -14 3 -41 7 -60 10 -76 10 -268 34 -319 40 -30 4 -61 8
-70 10 -9 2 -44 6 -76 10 -33 4 -71 8 -85 10 -14 2 -43 6 -65 9 -22 3 -76 10
-120 16 -45 6 -99 13 -120 15 -49 6 -79 10 -225 29 -63 9 -137 18 -165 21 -27
3 -61 8 -75 10 -14 3 -47 7 -75 10 -27 3 -61 8 -75 10 -14 2 -52 7 -85 11 -33
3 -67 7 -75 9 -8 1 -40 6 -70 10 -30 3 -66 8 -80 10 -14 2 -63 9 -110 15 -133
16 -162 20 -205 26 -67 9 -97 13 -185 24 -115 14 -160 20 -190 25 -14 2 -45 6
-70 9 -25 3 -117 15 -205 27 -88 11 -178 23 -200 25 -22 2 -53 6 -70 9 -16 2
-55 7 -85 11 -30 3 -58 9 -61 13 -4 3 -59 110 -124 236 -65 127 -150 293 -190
370 -40 77 -124 241 -187 365 -271 528 -435 850 -623 1215 -110 214 -259 504
-420 820 -65 127 -157 307 -205 400 -252 490 -452 881 -615 1200 -113 221
-214 419 -390 760 -45 88 -135 264 -200 390 -65 127 -164 320 -220 430 -57
110 -140 272 -185 360 -45 88 -83 161 -84 162 -1 2 -17 -30 -36 -70z"/>
</g>
</svg>
